<svg id="Layer_1" height="512" viewBox="0 0 24 24" width="512" xmlns="http://www.w3.org/2000/svg" data-name="Layer 1"><path d="m8.62549 2.64648a.49983.49983 0 0 1 0 .707l-5.272 5.272a.49995.49995 0 0 1 -.707-.707l5.272-5.272a.49982.49982 0 0 1 .707 0zm5.65722 0-11.63623 11.63623a.5.5 0 1 0 .707.707l11.63627-11.63619a.5.5 0 1 0 -.707-.707zm6.1709.89991a.4998.4998 0 0 0 -.707 0l-16.20022 16.20019a.49995.49995 0 1 0 .707.707l16.20022-16.20016a.4998.4998 0 0 0 0-.70703zm.19287 5.46386-11.63623 11.63623a.5.5 0 1 0 .707.707l11.63627-11.63619a.5.5 0 1 0 -.707-.707zm0 6.36426-5.272 5.272a.49995.49995 0 1 0 .707.707l5.272-5.272a.49995.49995 0 0 0 -.707-.707z"/></svg>