<svg height="512" viewBox="0 0 128 128" width="512" xmlns="http://www.w3.org/2000/svg"><g><circle cx="64" cy="64" fill="#1daef1" r="57.694"/><path d="m121.69 64a57.412 57.412 0 0 1 -9.43 31.61c-8.9-5.36-24.48-11.71-48.26-11.71s-39.36 6.35-48.26 11.71a57.694 57.694 0 0 1 0-63.22c8.9 5.35 24.48 11.71 48.26 11.71s39.36-6.36 48.26-11.71a57.412 57.412 0 0 1 9.43 31.61z" fill="#cef4ff"/></g><g fill="#08203a"><path d="m39.715 67.018-3.904-11.839h-4.109l-3.903 11.839-3.262-11.839h-4.109l5.342 17.642h3.826l4.187-12.121 4.16 12.121h3.8l5.342-17.642h-4.109z"/><path d="m69.958 67.018-3.904-11.839h-4.108l-3.904 11.839-3.262-11.839h-4.108l5.341 17.642h3.827l4.186-12.121 4.16 12.121h3.801l5.341-17.642h-4.109z"/><path d="m103.463 55.179-3.262 11.839-3.903-11.839h-4.109l-3.904 11.839-3.261-11.839h-4.109l5.342 17.642h3.826l4.186-12.121 4.16 12.121h3.801l5.341-17.642z"/><path d="m100.793 106.143c-.922.806-1.884 1.592-2.857 2.336a1.75 1.75 0 1 0 2.125 2.781c1.034-.79 2.055-1.625 3.035-2.481a1.75 1.75 0 1 0 -2.3-2.636z"/><path d="m113.818 96.409a59.309 59.309 0 0 0 .073-64.666 1.77 1.77 0 0 0 -.122-.257 1.7 1.7 0 0 0 -.243-.311 59.411 59.411 0 0 0 -87.807-12.653 1.75 1.75 0 0 0 2.255 2.678 55.966 55.966 0 0 1 30-12.8 67.177 67.177 0 0 0 -21.312 30.673 77.062 77.062 0 0 1 -18.415-7.247 56.1 56.1 0 0 1 3.917-4.968 1.75 1.75 0 0 0 -2.617-2.324 59.419 59.419 0 0 0 -5.223 6.828c-.031.042-.066.079-.094.124-.016.028-.025.057-.04.086a59.32 59.32 0 0 0 -.081 64.685 1.874 1.874 0 0 0 .121.257 1.746 1.746 0 0 0 .244.311 59.428 59.428 0 0 0 49.519 26.618h.014a59.572 59.572 0 0 0 27.8-6.889 1.75 1.75 0 0 0 -1.64-3.093 55.928 55.928 0 0 1 -20.134 6.139 67.175 67.175 0 0 0 21.3-30.671 77.074 77.074 0 0 1 18.419 7.25c-.841 1.2-1.725 2.368-2.664 3.5a1.75 1.75 0 0 0 2.695 2.234 59.162 59.162 0 0 0 3.868-5.256 1.7 1.7 0 0 0 .113-.141c.025-.036.036-.073.054-.107zm-4.086-64.571a77.128 77.128 0 0 1 -18.394 7.235 67.166 67.166 0 0 0 -21.327-30.689 55.963 55.963 0 0 1 39.721 23.454zm-43.982-22.27a63.766 63.766 0 0 1 22.17 30.323 110.424 110.424 0 0 1 -22.17 2.433zm-3.5.007v32.749a110.424 110.424 0 0 1 -22.17-2.433 63.966 63.966 0 0 1 22.17-30.316zm-43.982 86.587a77.128 77.128 0 0 1 18.394-7.235 67.173 67.173 0 0 0 21.326 30.689 55.963 55.963 0 0 1 -39.72-23.454zm43.982 22.27a63.766 63.766 0 0 1 -22.17-30.323 110.424 110.424 0 0 1 22.17-2.433zm3.5-.007v-32.749a110.424 110.424 0 0 1 22.17 2.433 63.964 63.964 0 0 1 -22.17 30.316zm24.993-33.261-.017-.007a1.612 1.612 0 0 0 -.188-.039 113.3 113.3 0 0 0 -26.538-2.97 113.24 113.24 0 0 0 -26.612 2.987c-.038.009-.076.011-.114.023h-.011a81.148 81.148 0 0 0 -20.933 8.082 55.871 55.871 0 0 1 -.016-58.489 81.094 81.094 0 0 0 20.947 8.086h.013c.012 0 .024 0 .037.006a113.2 113.2 0 0 0 26.689 3 113.205 113.205 0 0 0 26.681-3c.015 0 .03 0 .045-.007l.016-.007a81.106 81.106 0 0 0 20.928-8.069 55.849 55.849 0 0 1 .01 58.486 81.162 81.162 0 0 0 -20.937-8.082z"/></g></svg>