<svg id="Capa_1" enable-background="new 0 0 512 512" height="512" viewBox="0 0 512 512" width="512" xmlns="http://www.w3.org/2000/svg"><g><g><g><path d="m429.5 73.5h-197c-2.76 0-5-2.24-5-5v-20c0-13.81-11.19-25-25-25h-170c-13.81 0-25 11.19-25 25v365c0 13.81 11.19 25 25 25h397c13.807 0 25-11.193 25-25v-315c0-13.81-11.19-25-25-25z" fill="#f3d332"/><path d="m454.5 139.5v274c0 13.81-11.19 25-25 25h-397c-12.1 0-22.18-8.59-24.5-20h14.5c1.81 0 2.99-.92 3.54-1.46.54-.55 1.46-1.73 1.46-3.54v-229c0-24.81 20.19-45 45-45z" fill="#dbb72b"/><path d="m504.5 194.5v219c0 13.81-11.19 25-25 25h-447c6.9 0 13.16-2.8 17.68-7.32s7.32-10.78 7.32-17.68v-219c0-13.81 11.19-25 25-25h397c13.81 0 25 11.19 25 25z" fill="#faf063"/></g><path d="m380.5 468.5v-97c0-9.941-8.059-18-18-18h-163c-9.941 0-18 8.059-18 18v97c0 11.046-8.954 20-20 20h-25c-11.046 0-20-8.954-20-20v-140c0-22.091 17.909-40 40-40h249c22.091 0 40 17.909 40 40v140c0 11.046-8.954 20-20 20h-25c-11.046 0-20-8.954-20-20z" fill="#9ec8fc"/><g fill="#62a4fb"><path d="m146.5 328.5v140c0 11.05 3.95 20 15 20h-25c-11.05 0-20-8.95-20-20v-140c0-22.09 17.91-40 40-40h30c-22.09 0-40 17.91-40 40z"/><path d="m425.5 488.5h-25c-11.05 0-20-8.95-20-20v-97c0-9.94-8.06-18-18-18h30c9.94 0 18 8.06 18 18v97c0 11.05 3.95 20 15 20z"/></g></g><g><path d="m479.5 162h-17.5v-17.606c0-4.143-3.358-7.5-7.5-7.5s-7.5 3.357-7.5 7.5v17.606h-364.5c-17.92 0-32.5 14.579-32.5 32.5v44.851c0 4.143 3.358 7.5 7.5 7.5s7.5-3.357 7.5-7.5v-44.851c0-9.649 7.851-17.5 17.5-17.5h397c9.649 0 17.5 7.851 17.5 17.5v219c0 9.649-7.851 17.5-17.5 17.5h-26.5v-102.5c0-26.191-21.309-47.5-47.5-47.5h-249c-26.191 0-47.5 21.309-47.5 47.5v102.5h-49.135c3.244-5.056 5.135-11.059 5.135-17.5v-139.149c0-4.143-3.358-7.5-7.5-7.5s-7.5 3.357-7.5 7.5v139.149c0 9.649-7.851 17.5-17.5 17.5s-17.5-7.851-17.5-17.5v-365c0-9.649 7.851-17.5 17.5-17.5h39.923c4.142 0 7.5-3.357 7.5-7.5s-3.358-7.5-7.5-7.5h-39.923c-17.92 0-32.5 14.579-32.5 32.5v365c0 17.921 14.58 32.5 32.5 32.5h76.5v22.5c0 15.163 12.336 27.5 27.5 27.5h25c15.164 0 27.5-12.337 27.5-27.5v-22.5h184v22.5c0 15.163 12.336 27.5 27.5 27.5h25c15.164 0 27.5-12.337 27.5-27.5v-22.5h26.5c17.92 0 32.5-14.579 32.5-32.5v-219c0-17.921-14.58-32.5-32.5-32.5zm-41.5 306.5c0 6.893-5.607 12.5-12.5 12.5h-25c-6.893 0-12.5-5.607-12.5-12.5v-53.841c0-4.143-3.358-7.5-7.5-7.5s-7.5 3.357-7.5 7.5v16.341h-184v-59.5c0-5.79 4.71-10.5 10.5-10.5h163c5.79 0 10.5 4.71 10.5 10.5v9.563c0 4.143 3.358 7.5 7.5 7.5s7.5-3.357 7.5-7.5v-9.563c0-14.061-11.439-25.5-25.5-25.5h-163c-14.061 0-25.5 11.439-25.5 25.5v97c0 6.893-5.607 12.5-12.5 12.5h-25c-6.893 0-12.5-5.607-12.5-12.5v-140c0-17.921 14.58-32.5 32.5-32.5h249c17.92 0 32.5 14.579 32.5 32.5z"/><path d="m107.423 31h95.077c9.649 0 17.5 7.851 17.5 17.5v20c0 6.893 5.607 12.5 12.5 12.5h197c9.649 0 17.5 7.851 17.5 17.5v10.894c0 4.143 3.358 7.5 7.5 7.5s7.5-3.357 7.5-7.5v-10.894c0-17.921-14.58-32.5-32.5-32.5h-194.5v-17.5c0-17.921-14.58-32.5-32.5-32.5h-95.077c-4.142 0-7.5 3.357-7.5 7.5s3.358 7.5 7.5 7.5z"/></g></g></svg>