<svg height="512" viewBox="0 0 60 60" width="512" xmlns="http://www.w3.org/2000/svg"><g id="Page-1" fill="none" fill-rule="evenodd"><g id="081---Terminal" fill-rule="nonzero"><path id="Shape" d="m59 13v41c0 2.7614237-2.2385763 5-5 5h-48c-1.32608245 0-2.59785201-.5267842-3.53553391-1.4644661-.93768189-.9376819-1.46446609-2.2094515-1.46446609-3.5355339v-41z" fill="#f5f5f5"/><path id="Shape" d="m56 13v41c0 2.7614237-2.2385763 5-5 5h3c2.7614237 0 5-2.2385763 5-5v-41z" fill="#cfd8dc"/><path id="Shape" d="m59 6v7h-58v-7c0-2.76142375 2.23857625-5 5-5h48c1.3260824 0 2.597852.5267842 3.5355339 1.46446609.9376819.9376819 1.4644661 2.20945146 1.4644661 3.53553391z" fill="#02a9f4"/><path id="Shape" d="m54 1h-3c1.3260824 0 2.597852.5267842 3.5355339 1.46446609.9376819.9376819 1.4644661 2.20945146 1.4644661 3.53553391v7h3v-7c0-1.32608245-.5267842-2.59785201-1.4644661-3.53553391-.9376819-.93768189-2.2094515-1.46446609-3.5355339-1.46446609z" fill="#0377bc"/><circle id="Oval" cx="7" cy="7" fill="#a4c400" r="2"/><circle id="Oval" cx="15" cy="7" fill="#ffdc00" r="2"/><circle id="Oval" cx="23" cy="7" fill="#ef314c" r="2"/><path id="Shape" d="m53 9c1.1045695 0 2-.8954305 2-2s-.8954305-2-2-2h-10c-1.1045695 0-2 .8954305-2 2s.8954305 2 2 2z" fill="#0377bc"/><g fill="#000"><path id="Shape" d="m54 0h-48c-3.31233757.00330738-5.99669262 2.68766243-6 6v48c.00330738 3.3123376 2.68766243 5.9966926 6 6h48c3.3123376-.0033074 5.9966926-2.6876624 6-6v-48c-.0033074-3.31233757-2.6876624-5.99669262-6-6zm-48 2h48c2.209139 0 4 1.790861 4 4v6h-56v-6c0-2.209139 1.790861-4 4-4zm48 56h-48c-2.209139 0-4-1.790861-4-4v-40h56v40c0 2.209139-1.790861 4-4 4z"/><path id="Shape" d="m7 10c1.65685425 0 3-1.34314575 3-3s-1.34314575-3-3-3-3 1.34314575-3 3 1.34314575 3 3 3zm0-4c.55228475 0 1 .44771525 1 1s-.44771525 1-1 1-1-.44771525-1-1 .44771525-1 1-1z"/><path id="Shape" d="m15 10c1.6568542 0 3-1.34314575 3-3s-1.3431458-3-3-3-3 1.34314575-3 3 1.3431458 3 3 3zm0-4c.5522847 0 1 .44771525 1 1s-.4477153 1-1 1-1-.44771525-1-1 .4477153-1 1-1z"/><path id="Shape" d="m23 10c1.6568542 0 3-1.34314575 3-3s-1.3431458-3-3-3-3 1.34314575-3 3 1.3431458 3 3 3zm0-4c.5522847 0 1 .44771525 1 1s-.4477153 1-1 1-1-.44771525-1-1 .4477153-1 1-1z"/><path id="Shape" d="m43 10h10c1.6568542-.00000002 3-1.34314577 3-3s-1.3431458-2.99999998-3-3h-10c-1.6568542.00000002-3 1.34314577-3 3s1.3431458 2.99999998 3 3zm0-4h10c.5522847 0 1 .44771525 1 1s-.4477153 1-1 1h-10c-.5522847 0-1-.44771525-1-1s.4477153-1 1-1z"/><path id="Shape" d="m7 43h22c.5522847 0 1-.4477153 1-1s-.4477153-1-1-1h-22c-.55228475 0-1 .4477153-1 1s.44771525 1 1 1z"/><path id="Shape" d="m7 48h6c.5522847 0 1-.4477153 1-1s-.4477153-1-1-1h-6c-.55228475 0-1 .4477153-1 1s.44771525 1 1 1z"/><path id="Shape" d="m19 51h-12c-.55228475 0-1 .4477153-1 1s.44771525 1 1 1h12c.5522847 0 1-.4477153 1-1s-.4477153-1-1-1z"/><path id="Shape" d="m32 42c0 .5522847.4477153 1 1 1h7c.5522847 0 1-.4477153 1-1s-.4477153-1-1-1h-7c-.5522847 0-1 .4477153-1 1z"/><path id="Shape" d="m53 41h-9c-.5522847 0-1 .4477153-1 1s.4477153 1 1 1h9c.5522847 0 1-.4477153 1-1s-.4477153-1-1-1z"/><path id="Shape" d="m20 46h-3c-.5522847 0-1 .4477153-1 1s.4477153 1 1 1h3c.5522847 0 1-.4477153 1-1s-.4477153-1-1-1z"/><path id="Shape" d="m24 46c-.5522847 0-1 .4477153-1 1s.4477153 1 1 1h12c.5522847 0 1-.4477153 1-1s-.4477153-1-1-1z"/><path id="Shape" d="m53 46h-13c-.5522847 0-1 .4477153-1 1s.4477153 1 1 1h13c.5522847 0 1-.4477153 1-1s-.4477153-1-1-1z"/><path id="Shape" d="m42 51h-19c-.5522847 0-1 .4477153-1 1s.4477153 1 1 1h19c.5522847 0 1-.4477153 1-1s-.4477153-1-1-1z"/><path id="Shape" d="m53 51h-7c-.5522847 0-1 .4477153-1 1s.4477153 1 1 1h7c.5522847 0 1-.4477153 1-1s-.4477153-1-1-1z"/><path id="Shape" d="m7.143 33.515c.28448459.4732297.89867757.6263303 1.372.342l10-6c.3007398-.1808357.4846836-.5060784.4846836-.857s-.1839438-.6761643-.4846836-.857l-10-6c-.47234698-.2723636-1.075816-.1161362-1.35666366.3512161-.28084767.4673523-.13554165 1.0735437.32666366 1.3627839l8.571 5.143-8.571 5.143c-.47322971.2844846-.6263303.8986776-.342 1.372z"/><path id="Shape" d="m22 34h12c.5522847 0 1-.4477153 1-1s-.4477153-1-1-1h-12c-.5522847 0-1 .4477153-1 1s.4477153 1 1 1z"/></g></g></g></svg>