<?xml version="1.0" encoding="utf-8"?>
<!-- Generator: Adobe Illustrator 23.0.1, SVG Export Plug-In . SVG Version: 6.00 Build 0)  -->
<svg version="1.1" id="Layer_1" xmlns="http://www.w3.org/2000/svg" x="0px" y="0px"
     viewBox="0 0 1919.98 412.16" style="enable-background:new 0 0 1919.98 412.16;" xml:space="preserve">
<style type="text/css">
	.st0{fill:#DDDDDD;}
	.st1{fill:#0A0A0A;}
	.st2{fill:#EF233C;}
	.st3{fill:#B40421;}
	.st4{fill:#323030;}
	.st5{fill:#1F1F1F;}
</style>
    <path class="st0" d="M1730.06,262.61c-149.61,15.33-299.68,57.21-447.78,34.57c-52.58-8.04-102.6-24-154.19-35.35
	c-150.82-33.16-315.65-25.41-460.38,21.65c-60.44,19.65-117.8,46-181.16,58.73C325.78,374.51,163.55,314.75,0,284.24v46.75
	c96.02,1.3,191.86,10.42,285.47,27.3c123.21,22.22,245.31,57.98,371.58,53.48c160.27-5.71,305.46-75.44,463.11-98.85
	c93.36-13.86,190.64-11.09,282.48,8.04c74.02,15.42,145.54,41.44,222.01,44.43c78.72,3.08,155.22-18.52,233.11-28.05
	c20.25-2.48,41.27-3.92,62.24-3.89v-75.87C1856.66,254.53,1792.98,256.16,1730.06,262.61z"/>
    <path class="st1" d="M20.96,98.65c91.42,17.61,180.35,46.51,274.33,50.64c155.52,6.83,304.05-54.76,459.73-58.76
	c154.3-3.96,305.71,48.91,459.36,37.14c147.01-11.26,288.73-81.1,433.22-56.99c58.58,9.77,111.17,34.38,167.07,51.27
	c33.98,10.27,69.36,17.6,105.32,21.99V82.81c-55.17-16.61-109.87-38.88-167.85-47.05c-154.12-21.71-308.02,58.29-463.17,41.26
	c-63.94-7.02-122.82-30.15-185.87-40.8C889.16,0.08,675.38,111.12,456.7,99.58c-97.35-5.14-189.18-34.33-283.4-53.5
	C117.31,34.69,57.44,27.11,0,30.04v64.84C7.04,96.06,14.03,97.32,20.96,98.65z"/>
    <path class="st2" d="M1659.53,187.73c-79.88,7.39-157.37,25.86-237.48,31.78c-171.28,12.65-345.94-32.55-514.8-8.07
	c-103.82,15.05-198.28,55.64-302.21,70.28c-193.15,27.21-386.19-37.76-581.33-56.49c-7.89-0.76-15.8-1.43-23.7-2.04v61.05
	c163.55,30.52,325.78,90.27,486.54,57.97c63.36-12.73,120.72-39.08,181.16-58.73c144.74-47.06,309.56-54.81,460.38-21.65
	c51.59,11.34,101.61,27.31,154.19,35.35c148.11,22.64,298.17-19.23,447.78-34.57c62.92-6.45,126.6-8.08,189.93-5.03v-54
	C1835.77,185.37,1746.56,179.67,1659.53,187.73z"/>
    <path class="st3" d="M1520.39,122.44c-105.85,14.83-203.14,57.8-309.52,70.06c-237.74,27.39-480.22-101.73-711.03-49.19
	c-62.36,14.2-119.06,41.01-181.08,56.08C215.37,224.52,106.74,215.41,0,195.43v27.76c7.91,0.61,15.81,1.29,23.7,2.04
	c195.15,18.73,388.19,83.69,581.33,56.49c103.93-14.64,198.39-55.23,302.21-70.28c168.86-24.48,343.52,20.73,514.8,8.07
	c80.11-5.92,157.6-24.39,237.48-31.78c87.03-8.06,176.25-2.36,260.46,15.86v-37.53C1790.57,131.17,1654.3,103.69,1520.39,122.44z"/>
    <path class="st4" d="M173.3,46.08c94.23,19.18,186.05,48.37,283.4,53.5c218.67,11.54,432.46-99.5,646.38-63.37
	c63.05,10.65,121.94,33.78,185.87,40.8c155.15,17.03,309.05-62.97,463.17-41.26c57.98,8.17,112.69,30.44,167.85,47.05V0H0v30.04
	C57.44,27.11,117.31,34.69,173.3,46.08z"/>
    <path class="st5" d="M1647.6,70.68c-144.49-24.11-286.21,45.73-433.22,56.99c-153.66,11.77-305.06-41.1-459.36-37.14
	c-155.68,4-304.21,65.6-459.73,58.76c-93.97-4.13-182.9-33.03-274.33-50.64C14.03,97.32,7.04,96.06,0,94.88v100.55
	c106.74,19.98,215.37,29.09,318.76,3.97c62.02-15.07,118.72-41.89,181.08-56.08c230.81-52.54,473.29,76.57,711.03,49.19
	c106.38-12.25,203.67-55.23,309.52-70.06c133.91-18.76,270.19,8.72,399.6,43.61v-22.11c-35.96-4.39-71.33-11.73-105.32-21.99
	C1758.77,105.06,1706.17,80.45,1647.6,70.68z"/>
</svg>
